Coordinates
version=1
nRows=4
nColumns=107
inDegrees=yes

Units are S.I. units (second, meters, Newtons, ...)
If the header above contains a line with 'inDegrees', this indicates whether rotational values are in degrees (yes) or radians (no).

endheader
time	sternoclavicular_r2	sternoclavicular_r3	unrotscap_r3	unrotscap_r2	acromioclavicular_r2	acromioclavicular_r3	acromioclavicular_r1	unrothum_r1	unrothum_r3	unrothum_r2	elv_angle	shoulder_elv	shoulder1_r2	shoulder_rot	elbow_flexion	pro_sup	deviation	flexion	proximal_distal_r1	proximal_distal_r3	cmc_flexion	cmc_abduction	mp_flexion	ip_flexion	mcp2_flexion	mcp2_abduction	pm2_flexion	md2_flexion	mcp3_flexion	mcp3_abduction	pm3_flexion	md3_flexion	mcp4_flexion	mcp4_abduction	pm4_flexion	md4_flexion	mcp5_flexion	mcp5_abduction	pm5_flexion	md5_flexion	bicpt_tx	bicpt_ty	bicpt_tz	bicpt2_tx	bicpt2_ty	bicpt2_tz	ptpt_tx	ptpt_ty	ptpt_tz	FCUpt_tx	FCUpt_ty	FCUpt_tz	EDCpt_tx	EDCpt_ty	EDCpt_tz	APLpt_tx	APLpt_ty	APLpt_tz	FPLpt_tx	FPLpt_ty	FPLpt_tz	FPLpt2_tx	FPLpt2_ty	FPLpt2_tz	PEC1pt2_tx	PEC1pt2_ty	PEC1pt2_tz	PEC1pt3_tx	PEC1pt3_ty	PEC1pt3_tz	PEC2pt2_tx	PEC2pt2_ty	PEC2pt2_tz	PEC2pt3_tx	PEC2pt3_ty	PEC2pt3_tz	PEC3pt2_tx	PEC3pt2_ty	PEC3pt2_tz	PEC3pt3_tx	PEC3pt3_ty	PEC3pt3_tz	DELT2pt2a_tx	DELT2pt2a_ty	DELT2pt2a_tz	DELT2pt2_tx	DELT2pt2_ty	DELT2pt2_tz	LAT1pt2_tx	LAT1pt2_ty	LAT1pt2_tz	LAT1pt3_tx	LAT1pt3_ty	LAT1pt3_tz	LAT2pt2_tx	LAT2pt2_ty	LAT2pt2_tz	LAT2pt3_tx	LAT2pt3_ty	LAT2pt3_tz	LAT3pt2_tx	LAT3pt2_ty	LAT3pt2_tz	LAT3pt3_tx	LAT3pt3_ty	LAT3pt3_tz
      0.86666667	     -0.32417657	      0.13730590	     -0.13730590	      0.32417657	     -0.06563916	      0.53047262	      0.23844379	     -0.23844379	     -0.53047262	      0.06563916	     98.06499986	     76.75168521	     -1.71155713	    -20.02360741	     29.53875954	     36.57305060	      0.27006134	     -0.75832173	      0.30681564	     -0.37916086	     19.17915707	     -9.58322165	    -18.36692191	     -8.00283201	     31.59546847	     13.17564629	     60.73952518	     69.71823003	     42.03833288	      5.06525767	     63.57563962	     44.06709532	     51.01552535	     -9.54252606	     58.98830329	     34.32201822	     71.59775185	    -14.05172894	     26.78065733	      5.53045894	      0.00087705	     -0.03098559	     -0.00484533	      0.01655457	     -0.01822435	     -0.00782763	      0.00484766	     -0.06664737	     -0.00299616	      0.00743703	     -0.18356469	     -0.00035767	     -0.00438876	      0.00124265	      0.00016784	      0.00029429	      0.00011772	      0.00058859	      0.00037670	      0.00113009	      0.00063568	      0.00001385	     -0.00027512	     -0.00033015	      0.00251575	      0.00882645	      0.00614014	     -0.00822949	      0.01987018	     -0.01884682	      0.00251575	      0.00882645	      0.00614014	      0.00055432	      0.01842042	     -0.00967925	      0.00397001	      0.00490828	      0.01602134	      0.00000000	      0.00787902	      0.00000000	     -0.00720614	     -0.03330173	     -0.00649716	      0.01378987	     -0.00043266	     -0.00330638	     -0.00089544	      0.01500923	     -0.00614014	      0.00247311	      0.02166105	     -0.01790874	     -0.00601222	      0.01300516	     -0.00550054	     -0.01253612	      0.02746007	     -0.03074334	     -0.02353720	      0.01454019	     -0.00737670	     -0.01560619	      0.03172406	     -0.03841851
      0.90000000	     -0.32391982	      0.13719715	     -0.13719715	      0.32391982	     -0.06558717	      0.53005247	      0.23825494	     -0.23825494	     -0.53005247	      0.06558717	     98.34833090	     76.69089586	     -1.71650219	    -20.39253812	     28.90574839	     35.24451372	      0.24200052	     -0.75325276	      0.28049356	     -0.37662638	     23.18720045	    -12.17914091	    -18.13975490	     -7.63525923	     24.10056114	     12.97484228	     54.67869861	     67.44036214	     33.71441276	      4.39616753	     56.74255309	     41.67841001	     42.73915676	     -8.02454931	     51.10493052	     31.67295392	     62.96273536	    -14.17112418	     19.86801005	      5.11404845	      0.00085611	     -0.03091304	     -0.00483364	      0.01653966	     -0.01805239	     -0.00796184	      0.00494583	     -0.06658390	     -0.00288913	      0.00730495	     -0.18359078	     -0.00034415	     -0.00422933	      0.00119028	      0.00017443	      0.00029552	      0.00011821	      0.00059105	      0.00037827	      0.00113481	      0.00063833	      0.00000422	     -0.00028099	     -0.00033719	      0.00251376	      0.00881946	      0.00613528	     -0.00822298	      0.01985444	     -0.01883189	      0.00251376	      0.00881946	      0.00613528	      0.00055388	      0.01840583	     -0.00967158	      0.00396772	      0.00490439	      0.01601580	      0.00000000	      0.00786646	      0.00000000	     -0.00720043	     -0.03327536	     -0.00648674	      0.01400175	     -0.00044402	     -0.00343566	     -0.00089473	      0.01499734	     -0.00613528	      0.00247115	      0.02164389	     -0.01789456	     -0.00600746	      0.01299486	     -0.00549619	     -0.01252619	      0.02743832	     -0.03071899	     -0.02351856	      0.01452868	     -0.00737085	     -0.01559383	      0.03169893	     -0.03838809
      0.93333333	     -0.31827940	      0.13480813	     -0.13480813	      0.31827940	     -0.06444510	      0.52082266	      0.23410620	     -0.23410620	     -0.52082266	      0.06444510	     99.28335431	     75.35547686	     -1.73282143	    -26.82604880	     30.29362433	     41.92437748	      0.28372010	     -0.47060684	      0.31916075	     -0.23530342	     24.53133670	    -13.33754588	    -15.54663353	     -2.13821127	     15.63764968	     12.92648100	     51.31054165	     49.88377833	     24.15896019	      3.80430899	     49.81427928	     32.80457443	     33.46532236	     -6.07973740	     40.21089561	     28.97327168	     53.49827829	    -14.15522641	      7.04901156	      5.30512409	      0.00090202	     -0.03107211	     -0.00485927	      0.01657377	     -0.01842941	     -0.00726201	      0.00445226	     -0.06690305	     -0.00342723	      0.00797455	     -0.18345451	     -0.00039869	     -0.00503091	      0.00145910	      0.00013160	      0.00029604	      0.00011842	      0.00059208	      0.00037893	      0.00113680	      0.00063945	      0.00000124	     -0.00027897	     -0.00033477	      0.00246999	      0.00866589	      0.00602844	     -0.00807979	      0.01950871	     -0.01850397	      0.00246999	      0.00866589	      0.00602844	      0.00054423	      0.01808533	     -0.00950317	      0.00391710	      0.00481899	      0.01589176	      0.00000000	      0.00759303	      0.00000000	     -0.00707505	     -0.03269593	     -0.00625973	      0.01740363	     -0.00065026	     -0.00601654	     -0.00087915	      0.01473619	     -0.00602844	      0.00242812	      0.02126701	     -0.01758296	     -0.00590285	      0.01276858	     -0.00540048	     -0.01230807	      0.02696054	     -0.03018408	     -0.02310903	      0.01427569	     -0.00724250	     -0.01532229	      0.03114696	     -0.03771963
      0.96666667	     -0.31663531	      0.13411177	     -0.13411177	      0.31663531	     -0.06411221	      0.51813233	      0.23289692	     -0.23289692	     -0.51813233	      0.06411221	     99.82352600	     74.96622494	     -1.74224920	    -29.11219226	     30.30876679	     43.18958355	      0.28826127	     -0.35816988	      0.32319773	     -0.17908494	     27.06491489	    -13.88520551	    -14.37789072	     -1.44237109	      9.27790854	     12.71037338	     44.97696576	     44.88147466	     16.69145426	      2.76408496	     41.17745451	     28.76790834	     25.73928943	     -4.61511266	     30.64379833	     25.85217829	     44.46405481	    -14.17294292	     -0.27058425	      5.26710181	      0.00090252	     -0.03107385	     -0.00485955	      0.01656877	     -0.01843353	     -0.00712243	      0.00435878	     -0.06696350	     -0.00352915	      0.00810293	     -0.18342727	     -0.00040524	     -0.00518274	      0.00151156	      0.00012078	      0.00025904	      0.00010362	      0.00051808	      0.00033157	      0.00099471	      0.00055952	     -0.00000383	     -0.00026967	     -0.00032361	      0.00245723	      0.00862112	      0.00599730	     -0.00803805	      0.01940794	     -0.01840839	      0.00245723	      0.00862112	      0.00599730	      0.00054142	      0.01799191	     -0.00945408	      0.00390222	      0.00479410	      0.01585479	      0.00000000	      0.00751426	      0.00000000	     -0.00703850	     -0.03252704	     -0.00619433	      0.01847935	     -0.00072690	     -0.00707120	     -0.00087461	      0.01466007	     -0.00599730	      0.00241558	      0.02115715	     -0.01749213	     -0.00587236	      0.01270262	     -0.00537258	     -0.01224449	      0.02682127	     -0.03002816	     -0.02298966	      0.01420195	     -0.00720509	     -0.01524315	      0.03098607	     -0.03752479
